HIERARCHY
ROOT Hips
{
  OFFSET 0 0 0
  CHANNELS 6 Xposition Yposition Zposition Zrotation Yrotation Xrotation
  JOINT LeftThigh
  {
    OFFSET 8.409438 0 -5.917753
    CHANNELS 3 Zrotation Yrotation Xrotation
    JOINT LeftLeg
    {
      OFFSET 0 0 -42.358652
      CHANNELS 3 Zrotation Yrotation Xrotation
      JOINT LeftFoot
      {
        OFFSET 0 0 -39.357303
        CHANNELS 3 Zrotation Yrotation Xrotation
      }
    }
  }
  JOINT RightThigh
  {
    OFFSET -8.409438 0 -5.917753
    CHANNELS 3 Zrotation Yrotation Xrotation
    JOINT RightLeg
    {
      OFFSET 0 0 -42.358652
      CHANNELS 3 Zrotation Yrotation Xrotation
      JOINT RightFoot
      {
        OFFSET 0 0 -39.357303
        CHANNELS 3 Zrotation Yrotation Xrotation
      }
    }
  }
  JOINT SpineLow
  {
    OFFSET 0 0 4.719101
    CHANNELS 3 Zrotation Yrotation Xrotation
    JOINT SpineMid
    {
      OFFSET 0 0 12.899191
      CHANNELS 3 Zrotation Yrotation Xrotation
      JOINT Chest
      {
        OFFSET 0 0 12.899191
        CHANNELS 3 Zrotation Yrotation Xrotation
        JOINT LeftShoulder
        {
          OFFSET 7.550562 1.41573 9.438202
          CHANNELS 3 Zrotation Yrotation Xrotation
          JOINT LeftArm
          {
            OFFSET 9.155056 0 4.247191
            CHANNELS 3 Zrotation Yrotation Xrotation
            JOINT LeftForearm
            {
              OFFSET 0 0 25.771955
              CHANNELS 3 Zrotation Yrotation Xrotation
              JOINT LeftHand
              {
                OFFSET 0 0 25.197169
                CHANNELS 3 Zrotation Yrotation Xrotation
              }
            }
          }
        }
        JOINT RightShoulder
        {
          OFFSET -7.550562 1.41573 9.438202
          CHANNELS 3 Zrotation Yrotation Xrotation
          JOINT RightArm
          {
            OFFSET -9.155056 0 4.247191
            CHANNELS 3 Zrotation Yrotation Xrotation
            JOINT RightForearm
            {
              OFFSET 0 0 -25.771955
              CHANNELS 3 Zrotation Yrotation Xrotation
              JOINT RightHand
              {
                OFFSET 0 0 -25.197169
                CHANNELS 3 Zrotation Yrotation Xrotation
              }
            }
          }
        }
        JOINT Neck
        {
          OFFSET 0 0 15.101124
          CHANNELS 3 Zrotation Yrotation Xrotation
          JOINT Head
          {
            OFFSET 0 0 11.325843
            CHANNELS 3 Zrotation Yrotation Xrotation
            End Site
            {
              OFFSET 0 0 14.157303
            }
          }
        }
      }
    }
  }
}
MOTION
Frames: 7
Frame Time: 0.0
0.0  93.25843  0.0  -2.875798  2.736321  -91.027483  17.129267  -17.335569  -5.191924  -6.454912  1.851201  13.119021  1.933636  -0.795016  1.752417  -24.68674  1.752132  -5.385029  -12.03268  5.926502  4.237925  4.493939  1.131377  1.027048  1.804268  -2.226206  0.655829  4.883767  -6.12976  1.629374  4.883767  -6.129761  1.629374  -10.181609  31.772993  -5.01538  164.784611  39.36086  -166.079342  18.257731  -16.939444  95.726678  70.412  25.029218  5.460946  -10.195162  4.514991  24.012122  65.832498  41.18071  22.17637  -33.079172  1.979793  -97.356269  71.149855  6.220102  21.316442  -15.992049  7.145872  0.008141  -11.97851  5.363527  0.194185  
0.0  93.25843  0.0  -2.967038  4.253399  -90.978143  16.634919  -17.410444  -5.342334  -6.713234  1.736  12.960091  1.788121  -0.821754  1.724866  -25.416861  1.726094  -5.347084  -12.497334  6.096683  4.409363  4.389173  1.158713  1.071313  1.924949  -2.225328  0.662941  5.213844  -6.130657  1.637611  5.213844  -6.130657  1.637611  -9.191344  31.597777  -4.392814  165.773475  39.14572  -167.239487  15.39714  -15.012204  99.612535  68.238169  24.990198  4.331758  -10.442416  4.865401  24.240597  64.585747  41.146002  21.861282  -36.079441  7.598762  -95.403437  71.365898  2.567238  22.156411  -17.063826  6.868355  -0.237924  -12.779792  5.162655  0.014464  
0.0  93.25843  0.0  -3.044567  5.522741  -90.940189  15.782356  -17.402354  -5.49311  -7.576215  1.737824  12.288081  2.365262  -0.817464  2.170759  -25.928857  1.695035  -5.34406  -13.217674  6.289672  4.580702  4.586663  1.17178  1.191986  2.069844  -2.204236  0.726356  5.605355  -6.08168  1.79942  5.605355  -6.08168  1.79942  -8.621969  31.33775  -4.253781  167.135488  39.040829  -168.408898  12.665044  -12.236207  103.243153  65.686838  24.787911  2.819683  -10.634391  4.989035  23.928674  63.830216  41.211795  21.892957  -38.551915  13.610387  -92.920474  71.212003  -1.232263  22.783235  -18.027641  6.475626  -0.591757  -13.500003  4.879181  -0.251761  
0.0  93.25843  0.0  -3.119444  6.454809  -90.909799  15.242683  -17.449377  -5.431832  -7.74827  1.612482  12.062202  2.367394  -0.83646  2.151245  -26.277139  1.531906  -5.370003  -13.625379  6.621426  4.859093  4.494075  1.249399  1.188946  2.218819  -2.174888  0.819308  6.005549  -6.013645  2.042632  6.005549  -6.013644  2.042632  -8.232228  31.081296  -4.455392  169.011876  39.014734  -169.407213  10.353841  -8.610325  106.281054  62.617451  24.026688  1.004523  -10.574301  4.974389  23.231831  63.67827  41.526602  22.358385  -40.153661  19.599518  -89.680852  70.779877  -5.040557  23.116948  -18.861192  5.99934  -1.000186  -14.123125  4.535473  -0.564232  
0.0  93.25843  0.0  -3.144558  7.093831  -90.845734  14.447289  -17.377954  -5.464369  -8.405717  1.563233  11.427815  2.890195  -0.829275  2.498264  -26.366766  1.334358  -5.480276  -13.63929  7.123389  5.275619  4.275419  1.214698  1.173815  2.426048  -2.12101  0.897206  6.56742  -5.880132  2.241935  6.56742  -5.880132  2.241935  -8.276859  30.729073  -4.698769  171.374579  39.005336  -170.245861  8.492801  -4.386818  108.754578  58.817359  22.491204  -0.970635  -10.668936  4.638747  22.482321  63.932839  42.319823  23.134868  -40.231495  25.244526  -85.461459  70.058602  -8.59843  23.287668  -19.62507  5.520308  -1.251748  -14.696126  4.185535  -0.761151  
0.0  93.25843  0.0  -3.161077  7.269526  -90.813914  14.252639  -17.394825  -5.282483  -8.427697  1.461184  11.224922  2.965711  -0.838347  2.504149  -26.329113  1.053489  -5.667016  -13.930541  7.587343  5.65393  4.272619  1.314506  1.144482  2.690434  -2.095879  0.899317  7.292129  -5.820042  2.226523  7.29213  -5.820043  2.226523  -8.176338  30.557834  -4.204671  174.095039  38.931909  -170.764555  7.144149  0.266581  110.725146  54.264185  20.068486  -3.09241  -10.811791  4.34419  22.30428  64.428764  43.732147  23.979802  -38.375438  30.236757  -80.074964  69.381837  -11.889916  23.320039  -20.485519  5.240823  -1.283796  -15.342451  3.978949  -0.787  
0.0  93.25843  0.0  -2.863108  8.107284  -90.44541  13.095738  -16.998476  -5.435036  -8.380541  1.36588  11.083008  2.938196  -0.824364  2.447485  -27.278847  0.940232  -6.320729  -13.98977  8.03702  6.091546  4.686378  1.497141  1.161232  2.682391  -1.96085  0.763432  7.284332  -5.436393  1.86998  7.284332  -5.436393  1.869981  -6.810564  30.002459  -2.940534  177.043888  38.801395  -171.21141  6.447528  5.340243  112.337409  49.000369  16.7317  -5.328986  -10.071177  3.705656  22.957031  65.293739  45.699265  24.732148  -34.464229  34.404912  -73.244126  68.960808  -14.949497  22.908863  -20.550193  5.03904  -0.785086  -15.396228  3.810784  -0.419054  
